# xmcd CD database file
#
# Track frame offsets:
#	150
#	14017
#	26500
#	39772
#	54420
#	69312
#	83272
#	96382
#	109530
#	120660
#	132782
#	146215
#	159310
#	172905
#	186500
#	199852
#	210197
#	222900
#	235187
#	248295
#	262620
#	275190
#	289230
#	301692
#	314135
#	325645
#	337395
#
# Disc length: 4695 seconds
#
# Revision: 0
# Processed by: cddbd v1.4PL0 Copyright (c) Steve Scherf et al.
# Submitted via: CDex 1.50Beta7
#
DISCID=7a12551b
DTITLE=Bill Monroe - Blue Moon Of Kentucky 1936-1949 [CD4]
DYEAR=2002
DGENRE=Country
TTITLE0=Blue Moon of Kentucky (1947)
TTITLE1=Toy Heart (1949)
TTITLE2=Summertime is Past and Gone (1948)
TTITLE3=Mansions for Me (1947)
TTITLE4=Mother's Only Sleeping (1947)
TTITLE5=Blue Yodel, No. 4 (1947)
TTITLE6=Will You be Loving Another Man¿ (1946)
TTITLE7=How Will I Explain About You¿ (1946)
TTITLE8=Shining Path (1984)
TTITLE9=Wicked Path of Sin (1948)
TTITLE10=I'm Going Back to Old Kentucky (1949)
TTITLE11=It's Mighty Dark to Travel (1948)
TTITLE12=I Hear a Sweet Voice Calling (1948)
TTITLE13=Little Cabin Home on the Hill (1948)
TTITLE14=My Rose of Old Kentucky (1948)
TTITLE15=Blue Grass Breakdown - instrumental (1949)
TTITLE16=Sweetheart, You Done Me Wrong (1948)
TTITLE17=The Old Cross Road (1949)
TTITLE18=That Home Above (1948)
TTITLE19=Remember the Cross (1949)
TTITLE20=Little Community Church (1948)
TTITLE21=Along About Daybreak (1949)
TTITLE22=When You are Lonely (1948)
TTITLE23=Molly and Tenbrooks (1949)
TTITLE24=Shine, Hallelujah, Shine (1948)
TTITLE25=I'm Travelin' on and on (1948)
TTITLE26=Can't You Hear Me Callin'¿ (1950)
EXTD=YEAR: 2002
EXTT0=
EXTT1=
EXTT2=
EXTT3=
EXTT4=
EXTT5=
EXTT6=
EXTT7=
EXTT8=
EXTT9=
EXTT10=
EXTT11=
EXTT12=
EXTT13=
EXTT14=
EXTT15=
EXTT16=
EXTT17=
EXTT18=
EXTT19=
EXTT20=
EXTT21=
EXTT22=
EXTT23=
EXTT24=
EXTT25=
EXTT26=
PLAYORDER=
